<?xml version="1.0" encoding="utf-8"?>
<!-- Generator: Adobe Illustrator 26.0.2, SVG Export Plug-In . SVG Version: 6.00 Build 0)  -->
<svg version="1.1" id="Warstwa_1" xmlns="http://www.w3.org/2000/svg" xmlns:xlink="http://www.w3.org/1999/xlink" x="0px" y="0px"
	 width="520.32px" height="74.65px" viewBox="0 0 520.32 74.65" enable-background="new 0 0 520.32 74.65" xml:space="preserve">
<path fill-rule="evenodd" clip-rule="evenodd" fill="#FDE8E6" d="M0,0h25.68l11.78,9.85L49.25,0h25.68l0,0v43.33l0,0L37.47,74.65
	L14.58,55.52l12.84-10.73l10.05,8.4l20.96-17.52V13.8L37.47,31.32L16.51,13.8l0,0L0,0 M16.51,13.8L16.51,13.8L9.98,8.34L16.51,13.8z
	 M16.51,18.87L0,5.07v38.26l11.55,9.65l12.84-10.73l-7.88-6.59V18.87z M258.91,48.96c2.89,1.54,6.19,2.31,9.89,2.31
	c3.66,0,6.94-0.77,9.86-2.31c2.92-1.54,5.19-3.66,6.82-6.37c1.63-2.71,2.45-5.78,2.45-9.2V5.28h-9.53V32.8
	c0,1.82-0.42,3.46-1.27,4.91c-0.85,1.45-2,2.61-3.46,3.48c-1.46,0.87-3.08,1.3-4.86,1.3c-1.74,0-3.32-0.43-4.73-1.3
	c-1.41-0.87-2.54-2.03-3.36-3.48c-0.83-1.45-1.24-3.09-1.24-4.91V5.28h-9.86v28.1c0,3.43,0.83,6.49,2.48,9.2
	C253.74,45.3,256.02,47.42,258.91,48.96z M348.76,44.93c2.07,2.1,4.51,3.73,7.31,4.88c2.81,1.15,5.89,1.72,9.24,1.72
	c2.22,0,4.42-0.27,6.6-0.81c2.18-0.54,4.15-1.29,5.91-2.24c1.76-0.95,3.19-2.02,4.28-3.19l-4.83-7.61
	c-0.87,0.91-1.86,1.71-2.97,2.41c-1.11,0.69-2.32,1.24-3.62,1.63c-1.31,0.39-2.66,0.59-4.05,0.59c-2.13,0-4.08-0.33-5.84-1.01
	c-1.76-0.67-3.28-1.63-4.54-2.86c-1.26-1.24-2.24-2.73-2.94-4.49c-0.7-1.76-1.05-3.72-1.05-5.89c0-2.12,0.36-4.07,1.08-5.82
	c0.72-1.76,1.69-3.25,2.91-4.49c1.22-1.24,2.64-2.2,4.28-2.89c1.63-0.69,3.38-1.04,5.26-1.04c1.39,0,2.71,0.21,3.95,0.62
	c1.24,0.41,2.43,1,3.56,1.76c1.13,0.76,2.2,1.66,3.2,2.7l6.14-6.76c-1.26-1.56-2.78-2.9-4.54-4.03c-1.76-1.13-3.7-1.98-5.81-2.57
	c-2.11-0.58-4.26-0.88-6.43-0.88c-3.35,0-6.46,0.59-9.34,1.76c-2.87,1.17-5.38,2.81-7.51,4.91c-2.13,2.1-3.79,4.58-4.96,7.42
	c-1.18,2.84-1.76,5.93-1.76,9.27c0,3.43,0.56,6.58,1.7,9.46C345.09,40.33,346.69,42.82,348.76,44.93z M425.27,42.16h-23.31
	l22.59-30.25V5.35h-34.02v9.04h20.76l-22.46,29.86v6.63h36.43V42.16z M447.51,50.88h9.86V30.6l16.72-25.25h-10.9L452.5,22.1
	L440.79,5.35h-11.3l18.02,25.37V50.88z M121.99,46.75c0.96,1.02,2.02,1.88,3.2,2.57c1.18,0.69,2.48,1.23,3.92,1.63
	c1.44,0.39,2.98,0.59,4.64,0.59c2.13,0,4.1-0.35,5.91-1.04c1.81-0.69,3.38-1.68,4.73-2.96c1.35-1.28,2.39-2.81,3.13-4.59
	c0.74-1.78,1.11-3.75,1.11-5.92V15.99V14V5.35h-17.96V14h8.36v21.92c0,1.3-0.25,2.45-0.75,3.45c-0.5,1-1.22,1.78-2.15,2.34
	c-0.94,0.56-2.01,0.85-3.23,0.85c-0.7,0-1.35-0.07-1.96-0.23c-0.61-0.15-1.21-0.43-1.8-0.85c-0.59-0.41-1.2-0.94-1.83-1.59
	c-0.63-0.65-1.32-1.47-2.06-2.47l-5.68,5.92C120.22,44.59,121.03,45.73,121.99,46.75z M103.96,0h-2.31v56.22h2.31V0z M333.94,31.75
	c-0.83-1.6-1.99-2.95-3.49-4.03c-0.99-0.71-2.1-1.28-3.32-1.73c1.52-0.69,2.75-1.65,3.68-2.89c1.31-1.73,1.96-3.9,1.96-6.5
	c0-2.34-0.54-4.36-1.63-6.05c-1.09-1.69-2.69-2.98-4.8-3.87c-2.11-0.89-4.69-1.33-7.74-1.33h-19.85v45.53h20.5
	c2.39,0,4.56-0.29,6.5-0.88c1.94-0.59,3.62-1.44,5.06-2.57c1.44-1.13,2.52-2.55,3.26-4.26c0.74-1.71,1.11-3.7,1.11-5.95
	C335.18,35.18,334.77,33.36,333.94,31.75z M324.67,39.88c-0.52,0.87-1.27,1.51-2.25,1.92c-0.98,0.41-2.17,0.62-3.56,0.62h-10.71
	V37.8v-6.24v-7.74v-3.64V13.8h8.68c2.13,0,3.72,0.43,4.77,1.3c1.04,0.87,1.57,2.1,1.57,3.71c0,1-0.23,1.86-0.69,2.6
	c-0.46,0.74-1.12,1.32-1.99,1.76c-0.87,0.43-1.89,0.65-3.07,0.65h-6.96v7.74h8.07c1.44,0,2.67,0.21,3.69,0.62
	c1.02,0.41,1.82,1.01,2.38,1.79c0.56,0.78,0.85,1.73,0.85,2.86C325.45,38,325.19,39.02,324.67,39.88z M179.34,5.35h-8.75
	l-17.96,45.53h9.73l3.62-9.56h15.07l-2.93-7.81h-9.19l2.63-6.96c0.35-1,0.72-2.02,1.11-3.06c0.39-1.04,0.76-2.11,1.11-3.22
	c0.35-1.1,0.68-2.17,1-3.23c0.32,1.02,0.66,2.08,1.02,3.19c0.39,1.22,0.77,2.36,1.14,3.45c0.37,1.08,0.69,1.97,0.95,2.67l2.07,5.52
	l0,0l7.13,19h10.06L179.34,5.35z M229.65,18.34l13.34-12.99H231.1l-18.61,18.69V5.35h-9.79v45.53h9.79V35.06L229.65,18.34
	L229.65,18.34z M224.87,26.21l-6.46,6.29l13.93,18.37h11.62L224.87,26.21z M506,18.34l13.33-12.99h-11.88l-18.61,18.69V5.35h-9.79
	v45.53h9.79V35.06L506,18.34L506,18.34z M501.23,26.21l-6.46,6.29l13.92,18.37h11.62L501.23,26.21z"/>
<rect x="101.65" fill-rule="evenodd" clip-rule="evenodd" fill="#BE2F3A" width="2.31" height="56.22"/>
</svg>
