<svg id="Warstwa_1" data-name="Warstwa 1" xmlns="http://www.w3.org/2000/svg" width="45" height="44.48" viewBox="0 0 45 44.48"><defs><style>.cls-1{fill:#c7313c;fill-rule:evenodd;}</style></defs><polyline class="cls-1" points="0 0 15.42 0 22.5 5.87 29.58 0 45 0 45 0 45 25.82 45 25.82 22.5 44.48 8.76 33.08 16.47 26.69 22.5 31.69 35.09 21.25 35.09 8.22 22.5 18.66 9.91 8.22 9.91 8.22 0 0"/><polygon class="cls-1" points="9.91 8.22 9.91 8.22 5.99 4.97 9.91 8.22"/><polygon class="cls-1" points="9.91 11.24 0 3.02 0 25.82 6.94 31.57 14.65 25.18 9.91 21.25 9.91 11.24"/></svg>